<svg width="32" height="32" viewBox="0 0 32 32" fill="none" xmlns="http://www.w3.org/2000/svg">
<path d="M6.33117 23.2984L6.67588 22.9369L6.31479 22.5919L5.35212 21.6719L4.9923 21.328L4.64678 21.6862C4.12259 22.2297 3.40591 23.0937 2.96794 23.6672L2.71992 23.992C2.61109 23.8117 2.50583 23.6289 2.40423 23.4439C5.83786 19.0521 10.8657 15.6151 16.1567 13.8198C21.4596 12.0204 26.9659 11.8887 31.3742 14.0187C31.385 14.1029 31.3952 14.1873 31.4046 14.2719C30.9148 14.0826 29.1166 13.3982 28.9469 13.3359L28.4771 13.1636L28.3051 13.6335L27.8465 14.8868L27.6756 15.3537L28.1414 15.5272L30.6681 16.4685L31.1266 16.6394L31.3073 16.1846L31.4973 15.7066C31.4991 15.8041 31.5 15.902 31.5 16C31.5 24.5545 24.5545 31.5 16 31.5C10.4241 31.5 5.53193 28.5503 2.80058 24.1242L3.0213 24.3335L3.94797 25.2122L3.96341 25.1959C4.00283 25.2403 4.04464 25.279 4.08356 25.3038C4.18484 25.3377 4.35386 25.3455 4.41574 25.3338C4.50436 25.3112 4.56555 25.2683 4.57425 25.2622L4.57506 25.2616C4.60584 25.2405 4.62793 25.2199 4.63185 25.2163L4.63224 25.2159C4.64479 25.2043 4.65456 25.1941 4.65721 25.1913L4.65741 25.1911C4.66496 25.1832 4.67233 25.175 4.67725 25.1695C4.6883 25.1572 4.70289 25.1407 4.71947 25.1217C4.75314 25.0832 4.8012 25.0278 4.85936 24.9606C4.8793 24.9376 4.90049 24.9131 4.92281 24.8873C5.03135 24.7619 5.16647 24.6057 5.3128 24.4376C5.66824 24.0293 6.07971 23.5621 6.33117 23.2984ZM8.45262 19.0134L8.13785 18.6246L7.74919 18.9396C7.67032 19.0035 7.59743 19.0625 7.52923 19.1177C6.86513 19.6552 6.64548 19.833 5.6735 20.6953L5.29939 21.0272L5.63141 21.4013L6.51674 22.3986L6.84955 22.7735L7.22358 22.4397C7.25344 22.4131 7.28305 22.3866 7.31274 22.3601C7.69808 22.0156 8.09576 21.6602 9.21719 20.7527L9.60595 20.4381L9.29129 20.0494L8.45262 19.0134ZM8.90812 18.0861L8.4934 18.3643L8.7711 18.7794L9.51244 19.8874L9.79071 20.3033L10.2064 20.0247C10.2644 19.9858 10.3203 19.9482 10.375 19.9115C10.9009 19.5583 11.312 19.2821 12.4083 18.6184L12.8355 18.3597L12.5773 17.9322L11.888 16.7908L11.6292 16.3624L11.201 16.6216C10.4231 17.0927 9.65926 17.5822 8.90812 18.0861ZM12.4581 15.9299L12.0093 16.1505L12.23 16.5993L12.818 17.7953L13.0385 18.2438L13.4871 18.0235C13.538 17.9985 13.5879 17.9739 13.6374 17.9495C14.1655 17.6896 14.6476 17.4522 15.8566 16.9312L16.3163 16.733L16.1176 16.2735L15.5883 15.0495L15.3896 14.5903L14.9305 14.7892L15.1293 15.248L14.9305 14.7892L14.9304 14.7893L14.9302 14.7894L14.9294 14.7897L14.9265 14.791L14.9153 14.7958L14.8722 14.8146C14.8347 14.831 14.7799 14.855 14.7105 14.8856C14.5719 14.9468 14.3748 15.0344 14.1406 15.1402C13.6729 15.3515 13.0548 15.6366 12.4581 15.9299ZM0.5014 15.7898C0.61408 7.33197 7.51566 0.5 16 0.5C20.9816 0.5 25.4177 2.85537 28.2545 6.513L26.2283 6.278L25.7328 6.22053L25.6741 6.71589L25.5195 8.02256L25.4605 8.52102L25.9591 8.57809L28.5338 8.87276L29.0239 8.92885L29.0866 8.43952L29.1658 7.82112C29.5401 8.42186 29.8744 9.05004 30.1651 9.70192C20.4414 6.83209 8.64755 10.8226 0.887973 19.4611C0.71538 18.7048 0.598207 17.9277 0.540827 17.1339L1.04008 17.7374L1.37173 18.1383L1.75912 17.7909L3.60312 16.1376L3.95951 15.8181L3.65579 15.4481L2.81846 14.4281L2.48881 14.0265L2.10017 14.3713L0.5014 15.7898ZM16.2838 14.2802L15.8074 14.4338L15.9617 14.9101L16.3723 16.1781L16.5261 16.6528L17.0011 16.5C17.0551 16.4826 17.1086 16.4653 17.1626 16.4479C17.673 16.2829 18.2171 16.107 19.4983 15.7688L19.9816 15.6412L19.8541 15.1578L19.5141 13.8685L19.3865 13.3845L18.9027 13.5127C18.8377 13.5299 18.776 13.5462 18.7169 13.5618C17.8688 13.786 17.573 13.8642 16.2838 14.2802ZM20.3288 13.2192L19.8347 13.2958L19.9112 13.7899L20.1152 15.1072L20.1917 15.6009L20.6855 15.5248C21.5397 15.3932 22.3993 15.2903 23.2632 15.2084L23.7603 15.1613L23.7138 14.6642L23.5898 13.3362L23.5433 12.8375L23.0447 12.8849C22.9642 12.8926 22.8883 12.8997 22.8161 12.9066C21.9404 12.9893 21.6138 13.0202 20.3288 13.2192ZM3.21316 13.4308L2.82813 13.7496L3.14674 14.1347L3.99608 15.1614L4.31449 15.5463L4.69969 15.2282C4.73662 15.1977 4.77336 15.1673 4.81029 15.1368C5.23741 14.7834 5.68945 14.4095 6.75053 13.6198L7.15166 13.3212L6.85308 12.9201L6.05708 11.8508L5.75824 11.4493L5.35707 11.7485L5.656 12.1493L5.35704 11.7486L5.35698 11.7486L5.35679 11.7487L5.35611 11.7493L5.35353 11.7512L5.34366 11.7586L5.30582 11.7869C5.27285 11.8117 5.22479 11.8478 5.16402 11.8938C5.04252 11.9857 4.87014 12.1169 4.66613 12.2742C4.25865 12.5885 3.72266 13.0091 3.21316 13.4308ZM27.7034 13.5355L27.7469 13.037L27.2485 12.9939C26.5699 12.9351 26.2472 12.9067 25.9241 12.8875C25.5899 12.8676 25.2551 12.8575 24.5257 12.8336L24.0266 12.8173L24.0096 13.3163L23.9643 14.6483L23.9473 15.1489L24.4478 15.1651C24.5546 15.1685 24.6518 15.1716 24.7417 15.1744C25.5836 15.201 25.7782 15.2071 27.0452 15.3194L27.5439 15.3636L27.5874 14.8648L27.7034 13.5355ZM6.5458 10.9409L6.11997 11.2032L6.38233 11.629L7.08233 12.765L7.34493 13.1911L7.77079 12.928C7.81064 12.9034 7.84989 12.8791 7.88905 12.8549C8.34694 12.5715 8.79255 12.2956 10.0274 11.6074L10.4641 11.364L10.2208 10.9273L9.57144 9.76196L9.328 9.32507L8.89118 9.56863C8.79483 9.62235 8.70681 9.67134 8.62518 9.71678C7.88938 10.1263 7.67197 10.2473 6.5458 10.9409ZM10.1849 8.92461L9.72634 9.12527L9.92748 9.5836L10.4635 10.8049L10.6641 11.262L11.1215 11.0622C11.9604 10.6957 12.2425 10.5711 12.528 10.455C12.7609 10.3602 12.9961 10.2711 13.5382 10.0608L14.0039 9.88015L13.8236 9.41424L13.3423 8.17024L13.1617 7.70353L12.6952 7.88451C11.8485 8.21293 11.0125 8.56242 10.1849 8.92461ZM14.0523 7.42563L13.5736 7.56634L13.7133 8.04533L14.0867 9.32533L14.2269 9.80615L14.7075 9.6651C14.7516 9.65216 14.7956 9.63917 14.8402 9.62601C15.3115 9.48702 15.8509 9.32792 17.2305 8.99541L17.7169 8.87818L17.5993 8.39183L17.286 7.09583L17.1684 6.60948L16.6821 6.72742C16.5728 6.75393 16.4724 6.77822 16.3786 6.80088C15.5504 7.00106 15.2483 7.07408 14.0523 7.42563ZM18.1048 6.45824L17.6096 6.52811L17.6796 7.02334L17.8663 8.34334L17.9362 8.83764L18.4306 8.76852C18.495 8.7595 18.558 8.75063 18.6204 8.74184C19.2196 8.65738 19.7602 8.58119 21.0205 8.46869L21.519 8.42418L21.474 7.92567L21.354 6.59767L21.3089 6.09874L20.81 6.14478L20.856 6.64267L20.81 6.14479L20.8099 6.14479L20.8097 6.14481L20.8089 6.14489L20.8057 6.14519L20.7934 6.14633L20.7464 6.15078C20.7054 6.15469 20.6456 6.16046 20.5699 6.16795C20.4185 6.18292 20.2032 6.20478 19.9472 6.23238C19.436 6.28751 18.7597 6.36584 18.1048 6.45824ZM25.4806 6.19862L24.9818 6.16889C23.6338 6.08853 23.2891 6.08673 22.3609 6.0819L22.2547 6.08134L21.7545 6.07868L21.752 6.57883L21.7453 7.91217L21.7428 8.41164L22.2423 8.41466C22.2886 8.41494 22.3344 8.41518 22.38 8.41543C22.9821 8.41867 23.5516 8.42174 24.8434 8.49911L25.343 8.52902L25.3725 8.02948L25.4511 6.69748L25.4806 6.19862Z" fill="#BDFF30" stroke="white"/>
</svg>
