<svg width="356" height="72" viewBox="0 0 356 72" fill="none" xmlns="http://www.w3.org/2000/svg">
<path d="M14.9945 52.0115L15.9624 51.0465L15.966 51.0504L17.0568 50.1249C17.1266 50.0656 17.1959 50.0067 17.2654 49.9477C18.1618 49.1858 19.0863 48.4 21.698 46.3906L22.7783 45.5594L23.9831 44.7916C24.1187 44.7052 24.2493 44.6218 24.3769 44.5403C25.6024 43.7576 26.5579 43.1474 29.111 41.6776L30.429 40.9188L31.6057 40.3694C31.7247 40.3139 31.8413 40.2593 31.9569 40.2052C33.1872 39.6293 34.3083 39.1046 37.124 37.9507L38.4579 37.404L39.7703 37.0027C39.8965 36.9642 40.0216 36.9257 40.1475 36.887C41.3368 36.5215 42.6021 36.1326 45.586 35.3836L46.8693 35.0615L46.8693 35.0616L48.3299 34.8476C50.3184 34.5563 52.3198 34.3285 54.3324 34.1471L55.816 34.0133L57.0651 34.0518C57.315 34.0595 57.5426 34.0663 57.7528 34.0726C59.7129 34.1314 60.1634 34.1449 63.1142 34.3935L64.5977 34.5184L64.6008 34.4845L65.6029 34.8395L71.5014 36.9289L72.839 37.4028L73.187 36.5701C72.5991 54.79 56.8362 69.5301 37.352 69.5301C25.6888 69.5301 15.3428 64.2398 8.80079 56.0785L9.01527 56.2719L9.0604 56.2218C9.17965 56.3511 9.30484 56.4626 9.42009 56.5328C9.71205 56.626 10.1965 56.6474 10.3736 56.6156C10.6303 56.5533 10.8094 56.4342 10.837 56.4158L10.8397 56.4141C10.932 56.3539 10.9986 56.295 11.0106 56.2843L11.0119 56.2833C11.0499 56.2499 11.0793 56.2205 11.0867 56.2131L11.0872 56.2126C11.1088 56.191 11.1291 56.1697 11.141 56.157C11.1686 56.1278 11.2041 56.0895 11.243 56.0472C11.3223 55.961 11.4352 55.8372 11.5708 55.6882C11.6176 55.6368 11.6673 55.5822 11.7196 55.5247C11.9729 55.2464 12.2877 54.9006 12.6287 54.5281C13.4595 53.6206 14.4144 52.5899 14.9945 52.0115ZM21.4174 43.6327L19.9675 41.9298L19.0414 40.842L17.9099 41.714C17.7262 41.8555 17.5564 41.9862 17.3974 42.1085C15.8436 43.3043 15.3271 43.7018 13.0523 45.6208L11.8465 46.638L12.923 47.791L14.2255 49.1861L12.6968 47.797L11.6461 46.8422L10.635 47.839C9.39812 49.0583 7.71522 50.9877 6.68683 52.2682L6.38153 52.6484C6.26555 52.4602 6.15143 52.2709 6.03919 52.0805C13.9999 42.5014 25.5935 34.9914 37.8032 31.0523C45.4348 28.5901 53.2358 27.544 60.4921 28.2141C59.7235 28.1714 58.9376 28.1486 57.2637 28.0966L55.7714 28.0502L55.718 29.5422L55.6329 31.9194L55.4011 29.5588L55.2556 28.0775L53.7733 28.2115C53.5858 28.2284 53.409 28.2443 53.2408 28.2594C51.1924 28.4435 50.4249 28.5125 47.4177 28.9553L45.911 29.1773L46.1558 30.6805L46.553 33.1194L45.8725 30.6659L45.4811 29.2546L44.0609 29.6122C43.9099 29.6502 43.7663 29.6863 43.6288 29.7208C41.6442 30.2198 40.9496 30.3944 37.9331 31.3197L36.4544 31.7733L36.9531 33.2374L37.736 35.5359L36.6848 33.2248L36.0858 31.9077L34.748 32.459L35.3194 33.8458C34.748 32.459 34.7479 32.459 34.7479 32.459L34.7477 32.4591L34.7472 32.4593L34.7453 32.46L34.7384 32.4629L34.712 32.4738L34.6111 32.5157C34.5231 32.5522 34.3949 32.6056 34.2327 32.6737C33.9083 32.8098 33.4474 33.0045 32.8999 33.2397C31.8064 33.7094 30.3604 34.3437 28.9633 34.9966L27.5488 35.6577L28.2659 37.0445L29.3317 39.1056L28.0195 37.04L27.2495 35.8277L26.0049 36.5443C24.1844 37.5925 22.3969 38.6817 20.6396 39.8026L19.3162 40.6467L20.2196 41.9304L21.4174 43.6327ZM65.0046 30.0851L65.1141 28.8923C65.4625 28.9634 65.8092 29.0389 66.154 29.1189L65.7746 30.1048L64.7611 32.7379L65.0046 30.0851ZM1.52362 34.2718C2.21363 16.1387 17.9349 1.5 37.352 1.5C48.5416 1.5 58.5155 6.36956 65.0843 13.9684L61.2599 13.5467L59.841 13.3902L59.8411 13.3886L59.8113 13.387L59.7897 13.3846L59.7895 13.3857L58.3354 13.3033C55.1816 13.1245 54.3727 13.1205 52.201 13.1098L51.9549 13.1085L50.4552 13.101L50.4473 14.6006L50.4334 17.252L50.1816 14.6027L50.0407 13.1202L48.5572 13.2504L48.6884 14.7447C48.5572 13.2504 48.5572 13.2504 48.5571 13.2504L48.5569 13.2504L48.5564 13.2505L48.5543 13.2507L48.5468 13.2513L48.518 13.2539L48.4079 13.2638C48.312 13.2725 48.172 13.2853 47.9949 13.302C47.6407 13.3353 47.1374 13.3839 46.539 13.4452C45.344 13.5677 43.762 13.7419 42.2293 13.9476L40.7213 14.1499L40.9451 15.6549L41.3233 18.1977L40.6734 15.6417L40.3119 14.2201L38.8826 14.5497C38.6278 14.6085 38.3934 14.6623 38.1747 14.7126C36.2383 15.1576 35.5289 15.3207 32.7306 16.1027L31.2492 16.5168L31.7003 17.9873L32.4507 20.4335L31.4484 17.9705L30.9014 16.6264L29.54 17.1286C27.5589 17.8592 25.6034 18.6366 23.6683 19.4417L22.2296 20.0403L22.8826 21.4552L23.8496 23.5501L22.619 21.4503L21.8923 20.2102L20.6223 20.8835C20.3978 21.0025 20.1926 21.1111 20.0023 21.2118C18.281 22.1228 17.77 22.3932 15.1353 23.9361L13.781 24.7292L14.6345 26.0462L15.8218 27.8782L14.385 26.0431L13.5032 24.9167L12.3363 25.7442L13.2039 26.9678C12.3363 25.7442 12.3362 25.7442 12.3362 25.7442L12.336 25.7443L12.3356 25.7447L12.3339 25.7458L12.3278 25.7502L12.3045 25.7667L12.2158 25.83C12.1385 25.8852 12.0259 25.9657 11.8837 26.068C11.5994 26.2725 11.1961 26.5643 10.7189 26.9142C9.76607 27.613 8.5114 28.549 7.31771 29.4886L6.07957 30.4631L7.11383 31.6518L9.0966 33.9307L10.0327 35.0066L11.1545 34.1259C11.2409 34.0582 11.3267 33.9906 11.413 33.9227C12.4078 33.1403 13.4584 32.3139 15.9287 30.5658L17.0508 29.7716L18.2872 29.0454C18.3803 28.9907 18.4721 28.9367 18.5636 28.8828C19.6298 28.2553 20.6662 27.6453 23.5431 26.1208L24.8348 25.4364L26.0712 24.9229C28.027 24.1106 28.6838 23.8346 29.3478 23.5777C29.8903 23.3679 30.4376 23.1708 31.7018 22.7045L33.0004 22.2255L33.0007 22.2264L34.4091 21.8334C34.5121 21.8046 34.6149 21.7758 34.7192 21.7466C35.8167 21.4388 37.0718 21.0868 40.2862 20.3502L41.6371 20.0406L43.0622 19.8512C43.2129 19.8311 43.36 19.8114 43.5056 19.7919C44.9025 19.6047 46.1598 19.4362 49.0954 19.187L50.5873 19.0604L51.9231 19.0681C52.0314 19.0687 52.1384 19.0692 52.2449 19.0698C52.9562 19.0734 53.6473 19.077 54.5478 19.1019C35.9181 19.275 16.331 27.8146 2.25375 42.4861C2.00792 41.367 1.82017 40.2278 1.69354 39.0713L2.19581 39.6486L3.17053 40.7689L4.30057 39.8055L8.60539 36.1356L9.75406 35.1564L8.76764 34.0139L6.81289 31.7498L5.84379 30.6274L4.71031 31.5835L1.52362 34.2718ZM68.2933 18.3337C68.8199 19.1845 69.3085 20.0586 69.7569 20.9541C68.1358 20.5244 66.4911 20.1711 64.8282 19.8924L66.5827 20.0833L68.0363 20.2415L68.2315 18.7924L68.2933 18.3337Z" fill="#BDFF30" stroke="white" stroke-width="3"/>
<path d="M124.584 16.49H132.851C135.533 16.49 137.553 16.9492 138.913 17.8677C140.309 18.7862 141.007 20.3844 141.007 22.6623V53.1929C141.007 54.4788 140.805 55.3238 140.401 55.728C140.033 56.1321 139.225 56.3342 137.976 56.3342H132.189V23.3236C132.189 22.7357 132.098 22.3316 131.914 22.1112C131.767 21.854 131.363 21.7254 130.702 21.7254H124.584V16.49ZM104.58 56.3342H98.7931C97.544 56.3342 96.7173 56.1321 96.3132 55.728C95.9458 55.3238 95.7621 54.4788 95.7621 53.1929V18.6944C95.7621 18.0331 95.9458 17.5003 96.3132 17.0962C96.6806 16.6921 97.1582 16.49 97.746 16.49H104.58V56.3342ZM106.839 16.49H120.947C121.535 16.49 122.013 16.6921 122.38 17.0962C122.747 17.5003 122.931 18.0331 122.931 18.6944V52.3112H117.2C116.098 52.3112 115.308 52.0173 114.83 51.4294C114.352 50.8049 114.114 49.8129 114.114 48.4535V23.3236C114.114 22.7357 114.022 22.3316 113.838 22.1112C113.691 21.854 113.287 21.7254 112.626 21.7254H106.839V16.49Z" fill="white"/>
<path d="M147.946 28.7794H154.229C154.816 28.7794 155.294 28.9815 155.661 29.3856C156.029 29.7898 156.213 30.3225 156.213 30.9838V50.5477C156.213 51.1355 156.341 51.558 156.598 51.8152C156.892 52.0724 157.517 52.201 158.472 52.201H161.448V56.3342H153.953C149.948 56.3342 147.946 54.3686 147.946 50.4375V28.7794ZM156.764 59.8612V62.782C156.764 63.4066 156.855 63.8291 157.039 64.0495C157.223 64.3067 157.7 64.4353 158.472 64.4353H161.448V68.5685H154.504C150.499 68.5685 148.497 66.6029 148.497 62.6718V61.0185C148.497 60.4674 148.552 60.1551 148.662 60.0816C148.809 60.0082 148.901 59.953 148.938 59.9163C148.975 59.9163 149.067 59.8979 149.214 59.8612C149.397 59.8612 149.526 59.8612 149.599 59.8612C151.987 59.8612 154.376 59.8612 156.764 59.8612ZM163.101 28.7794H166.463C168.079 28.7794 169.292 29.1836 170.1 29.9918C170.945 30.7634 171.368 31.7737 171.368 33.0229V64.3802C171.368 65.6293 170.945 66.6397 170.1 67.4112C169.292 68.2195 168.079 68.6236 166.463 68.6236H163.101V28.7794Z" fill="white"/>
<path d="M199.261 56.3342H198.599C197.13 56.3342 195.899 56.224 194.907 56.0035C193.952 55.7831 193.107 55.3422 192.372 54.6809C191.674 53.9828 191.123 53.2113 190.719 52.3663C190.351 51.5213 190.058 50.2538 189.837 48.5637C189.506 46.0287 189.341 42.6303 189.341 38.3685C189.341 34.0699 189.359 31.0389 189.396 29.2754C189.47 27.5119 189.617 25.8035 189.837 24.1502C190.058 22.4602 190.351 21.211 190.719 20.4028C191.123 19.5578 191.674 18.8046 192.372 18.1433C193.107 17.4452 193.952 17.0043 194.907 16.8206C195.899 16.6002 197.13 16.49 198.599 16.49H199.261V56.3342ZM201.465 16.49H208.464C211.146 16.49 213.167 16.9492 214.526 17.8677C215.922 18.7862 216.62 20.3844 216.62 22.6623V27.6221C216.62 28.3937 216.363 28.7794 215.849 28.7794H208.905C208.391 28.7794 208.078 28.7059 207.968 28.559C207.858 28.412 207.803 28.0997 207.803 27.6221V23.3236C207.803 22.7357 207.711 22.3316 207.527 22.1112C207.38 21.854 206.976 21.7254 206.315 21.7254H201.465V16.49ZM208.905 44.0448H215.849C216.363 44.0448 216.62 44.4305 216.62 45.2021V50.1619C216.62 52.4398 215.922 54.038 214.526 54.9564C213.167 55.8749 211.146 56.3342 208.464 56.3342H201.465V51.0988H206.315C206.976 51.0988 207.38 50.9886 207.527 50.7681C207.711 50.5109 207.803 50.0884 207.803 49.5006V45.2021C207.803 44.7244 207.858 44.4122 207.968 44.2652C208.078 44.1182 208.391 44.0448 208.905 44.0448Z" fill="white"/>
<path d="M228.545 28.7794H235.158C235.378 28.7794 235.488 28.908 235.488 29.1652V32.5269C235.488 32.784 235.341 32.9126 235.048 32.9126H232.568C231.686 32.9126 231.172 33.078 231.025 33.4086C230.878 33.8862 230.804 34.419 230.804 35.0068V52.0908C230.804 53.3399 230.382 54.3686 229.537 55.1769C228.728 55.9484 227.516 56.3342 225.899 56.3342H222.538V34.8966C222.538 32.7289 223.015 31.1675 223.971 30.2123C224.963 29.257 226.487 28.7794 228.545 28.7794Z" fill="white"/>
<path d="M239.708 28.8345H243.07C244.686 28.8345 245.899 29.2387 246.707 30.0469C247.552 30.8185 247.975 31.8288 247.975 33.078V56.3342H241.692C241.104 56.3342 240.627 56.1321 240.259 55.728C239.892 55.3238 239.708 54.7911 239.708 54.1298V28.8345ZM240.094 17.0962C240.498 16.6921 241.674 16.49 243.621 16.49C245.568 16.49 246.744 16.6921 247.148 17.0962C247.552 17.4636 247.754 18.5658 247.754 20.4028C247.754 22.2398 247.534 23.3603 247.093 23.7645C246.689 24.1686 245.531 24.3707 243.621 24.3707C241.71 24.3707 240.535 24.1686 240.094 23.7645C239.69 23.3603 239.488 22.2398 239.488 20.4028C239.488 18.5658 239.69 17.4636 240.094 17.0962Z" fill="white"/>
<path d="M262.449 56.3342H262.339C258.702 56.3342 256.46 55.7096 255.615 54.4605C255.211 53.8726 254.881 53.3032 254.623 52.7521C254.403 52.201 254.256 51.3376 254.183 50.1619C253.999 48.031 253.907 45.6613 253.907 43.0528C253.907 40.4443 253.925 38.5705 253.962 37.4316C253.999 36.2559 254.109 35.0803 254.293 33.9046C254.513 32.6922 254.789 31.8288 255.119 31.3145C255.45 30.7634 255.946 30.2674 256.607 29.8265C257.269 29.3856 258.04 29.1101 258.922 28.9999C259.804 28.8529 260.943 28.7794 262.339 28.7794H262.449V56.3342ZM268.842 47.6269C271.303 47.6269 273.177 47.6269 274.463 47.6269C275.749 47.6269 276.41 47.6452 276.447 47.682C276.484 47.682 276.539 47.7004 276.612 47.7371C276.722 47.7371 276.796 47.7555 276.833 47.7922C276.869 47.8289 276.906 47.8841 276.943 47.9575C276.98 47.9943 276.998 48.0678 276.998 48.178C277.071 48.4352 277.108 48.6372 277.108 48.7842V50.4375C277.108 54.3686 275.106 56.3342 271.101 56.3342H264.157V52.201H267.133C267.905 52.201 268.383 52.0908 268.566 51.8703C268.75 51.6131 268.842 51.1723 268.842 50.5477V47.6269ZM264.157 28.7794H271.101C275.106 28.7794 277.108 30.745 277.108 34.6761V38.4236C274.647 38.4236 272.773 38.4236 271.487 38.4236C270.201 38.4236 269.54 38.4236 269.503 38.4236C269.466 38.3868 269.393 38.3685 269.283 38.3685C269.209 38.3317 269.154 38.295 269.117 38.2583C269.081 38.2215 269.044 38.1848 269.007 38.148C268.97 38.0746 268.952 38.0011 268.952 37.9276C268.878 37.6337 268.842 37.4132 268.842 37.2663V34.5659C268.842 33.9413 268.75 33.5188 268.566 33.2984C268.383 33.0412 267.905 32.9126 267.133 32.9126H264.157V28.7794Z" fill="white"/>
<path d="M282.655 16.49H286.017C287.633 16.49 288.846 16.8941 289.654 17.7024C290.499 18.4739 290.921 19.4843 290.921 20.7334V56.3342H284.639C284.051 56.3342 283.573 56.1321 283.206 55.728C282.839 55.3238 282.655 54.7911 282.655 54.1298V16.49ZM297.534 43.8243H303.817C304.405 43.8243 304.882 44.0264 305.25 44.4305C305.617 44.8347 305.801 45.3674 305.801 46.0287V56.3342H299.518C298.931 56.3342 298.453 56.1321 298.086 55.728C297.718 55.3238 297.534 54.7911 297.534 54.1298V43.8243ZM305.25 28.7794V36.3845C305.25 40.3157 303.247 42.2813 299.243 42.2813H292.299V38.148H295.275C296.046 38.148 296.524 38.0378 296.708 37.8174C296.891 37.5602 296.983 37.1193 296.983 36.4948V31.0389C296.983 29.5326 297.645 28.7794 298.967 28.7794H305.25Z" fill="white"/>
<path d="M319.819 56.3342H319.709C316.071 56.3342 313.83 55.7096 312.985 54.4605C312.581 53.8726 312.251 53.3032 311.993 52.7521C311.773 52.201 311.626 51.3376 311.552 50.1619C311.369 48.031 311.277 45.6613 311.277 43.0528C311.277 40.4443 311.295 38.5705 311.332 37.4316C311.369 36.2559 311.479 35.0803 311.663 33.9046C311.883 32.6922 312.159 31.8288 312.489 31.3145C312.82 30.7634 313.316 30.2674 313.977 29.8265C314.639 29.3856 315.41 29.1101 316.292 28.9999C317.174 28.8529 318.313 28.7794 319.709 28.7794H319.819V56.3342ZM334.478 47.6269V50.4375C334.478 54.3686 332.476 56.3342 328.471 56.3342H321.527V52.201H324.503C325.275 52.201 325.752 52.0908 325.936 51.8703C326.12 51.6131 326.212 51.1723 326.212 50.5477V48.7842C326.212 48.2331 326.267 47.9208 326.377 47.8473C326.524 47.7738 326.616 47.7371 326.652 47.7371C326.689 47.7004 326.781 47.682 326.928 47.682C327.112 47.6452 327.24 47.6269 327.314 47.6269C329.702 47.6269 332.09 47.6269 334.478 47.6269ZM321.527 28.7794H327.92C330.455 28.7794 332.182 29.2754 333.1 30.2674C334.019 31.2593 334.478 32.7289 334.478 34.6761V39.5258C334.478 42.8323 332.678 44.4856 329.077 44.4856H320.976V40.3524H323.952C324.834 40.3524 325.422 40.2422 325.716 40.0218C326.046 39.8013 326.212 39.3788 326.212 38.7542V34.5659C326.212 33.9413 326.12 33.5188 325.936 33.2984C325.752 33.0412 325.275 32.9126 324.503 32.9126H321.527V28.7794Z" fill="white"/>
<path d="M354.292 55.8933C354.292 56.1138 354.181 56.2607 353.961 56.3342H349.773C347.091 56.3342 345.143 55.8015 343.931 54.736C342.719 53.6706 342.112 51.7968 342.112 49.1148V33.0229H339.302C338.383 33.0229 337.924 32.4718 337.924 31.3696V28.7794H342.112V16.49H345.474C347.091 16.49 348.303 16.8941 349.111 17.7024C349.956 18.5107 350.379 19.5394 350.379 20.7885V50.1068C350.379 51.4662 351.15 52.1459 352.693 52.1459H353.851C354.145 52.1459 354.292 52.2745 354.292 52.5316V55.8933ZM356 28.7794V31.3696C356 32.4718 355.541 33.0229 354.622 33.0229H351.757V28.7794H356Z" fill="white"/>
<path d="M124.584 16.49H132.851C135.533 16.49 137.553 16.9492 138.913 17.8677C140.309 18.7862 141.007 20.3844 141.007 22.6623V53.1929C141.007 54.4788 140.805 55.3238 140.401 55.728C140.033 56.1321 139.225 56.3342 137.976 56.3342H132.189V23.3236C132.189 22.7357 132.098 22.3316 131.914 22.1112C131.767 21.854 131.363 21.7254 130.702 21.7254H124.584V16.49ZM104.58 56.3342H98.7931C97.544 56.3342 96.7173 56.1321 96.3132 55.728C95.9458 55.3238 95.7621 54.4788 95.7621 53.1929V18.6944C95.7621 18.0331 95.9458 17.5003 96.3132 17.0962C96.6806 16.6921 97.1582 16.49 97.746 16.49H104.58V56.3342ZM106.839 16.49H120.947C121.535 16.49 122.013 16.6921 122.38 17.0962C122.747 17.5003 122.931 18.0331 122.931 18.6944V52.3112H117.2C116.098 52.3112 115.308 52.0173 114.83 51.4294C114.352 50.8049 114.114 49.8129 114.114 48.4535V23.3236C114.114 22.7357 114.022 22.3316 113.838 22.1112C113.691 21.854 113.287 21.7254 112.626 21.7254H106.839V16.49Z" fill="#BDFF30"/>
<path d="M147.946 28.7794H154.229C154.816 28.7794 155.294 28.9815 155.661 29.3856C156.029 29.7898 156.213 30.3225 156.213 30.9838V50.5477C156.213 51.1355 156.341 51.558 156.598 51.8152C156.892 52.0724 157.517 52.201 158.472 52.201H161.448V56.3342H153.953C149.948 56.3342 147.946 54.3686 147.946 50.4375V28.7794ZM156.764 59.8612V62.782C156.764 63.4066 156.855 63.8291 157.039 64.0495C157.223 64.3067 157.7 64.4353 158.472 64.4353H161.448V68.5685H154.504C150.499 68.5685 148.497 66.6029 148.497 62.6718V61.0185C148.497 60.4674 148.552 60.1551 148.663 60.0816C148.809 60.0082 148.901 59.953 148.938 59.9163C148.975 59.9163 149.067 59.8979 149.214 59.8612C149.397 59.8612 149.526 59.8612 149.599 59.8612C151.987 59.8612 154.376 59.8612 156.764 59.8612ZM163.101 28.7794H166.463C168.079 28.7794 169.292 29.1836 170.1 29.9918C170.945 30.7634 171.368 31.7737 171.368 33.0229V64.3802C171.368 65.6293 170.945 66.6397 170.1 67.4112C169.292 68.2195 168.079 68.6236 166.463 68.6236H163.101V28.7794Z" fill="#BDFF30"/>
</svg>
